<svg width="68" height="19" fill="none" xmlns="http://www.w3.org/2000/svg"><path d="M6.272 8.832c.584 0 1.088-.072 1.512-.216a2.955 2.955 0 001.044-.612 2.43 2.43 0 00.6-.924c.128-.352.192-.736.192-1.152 0-.824-.276-1.464-.828-1.92-.544-.456-1.376-.684-2.496-.684H4.424v5.508h1.848zM14.708 18h-3.252c-.608 0-1.048-.232-1.32-.696l-3.312-5.34a1.375 1.375 0 00-.456-.456c-.16-.096-.4-.144-.72-.144H4.424V18h-3.6V.588h5.472c1.216 0 2.256.128 3.12.384.864.248 1.572.596 2.124 1.044.552.448.956.984 1.212 1.608.256.616.384 1.296.384 2.04 0 .576-.084 1.124-.252 1.644-.16.512-.396.98-.708 1.404-.312.424-.696.8-1.152 1.128a5.958 5.958 0 01-1.56.792c.232.128.448.284.648.468.2.176.38.388.54.636L14.708 18zm8.223-5.172c-.808.04-1.48.112-2.016.216-.536.096-.964.224-1.284.384-.312.16-.536.344-.672.552a1.2 1.2 0 00-.192.66c0 .48.132.82.396 1.02.272.2.648.3 1.128.3.552 0 1.028-.096 1.428-.288.408-.2.812-.508 1.212-.924v-1.92zm-6.744-5.484a7.316 7.316 0 012.412-1.464 8.113 8.113 0 012.856-.492c.736 0 1.392.12 1.968.36.584.24 1.076.576 1.476 1.008.408.424.72.932.936 1.524.216.592.324 1.24.324 1.944V18h-1.512c-.312 0-.552-.044-.72-.132-.16-.088-.292-.272-.396-.552l-.264-.792c-.312.272-.616.512-.912.72a5.401 5.401 0 01-.9.528 4.94 4.94 0 01-1.008.312 5.953 5.953 0 01-1.188.108c-.544 0-1.04-.072-1.488-.216a3.347 3.347 0 01-1.164-.636 2.919 2.919 0 01-.744-1.068c-.176-.424-.264-.912-.264-1.464 0-.456.116-.912.348-1.368.232-.456.628-.868 1.188-1.236.568-.376 1.32-.684 2.256-.924.944-.248 2.124-.388 3.54-.42v-.636c0-.776-.164-1.344-.492-1.704-.328-.368-.8-.552-1.416-.552-.456 0-.836.056-1.14.168-.304.104-.572.22-.804.348-.224.12-.436.236-.636.348-.2.104-.432.156-.696.156a1 1 0 01-.588-.168c-.152-.12-.28-.26-.384-.42l-.588-1.056zm24.36-1.716L35.688 18h-3l-4.86-12.372h2.749c.24 0 .44.056.6.168a.89.89 0 01.336.432l2.076 6.12c.136.416.256.824.36 1.224.104.392.196.788.276 1.188.088-.4.184-.796.288-1.188.112-.4.24-.808.384-1.224l2.148-6.12a.822.822 0 01.324-.432.958.958 0 01.564-.168h2.616zm9.579 4.728c0-.344-.048-.672-.144-.984a2.217 2.217 0 00-.432-.828c-.2-.24-.452-.428-.756-.564-.304-.144-.668-.216-1.092-.216-.792 0-1.412.224-1.86.672-.448.448-.74 1.088-.876 1.92h5.16zm-5.208 1.968c.104 1.16.432 2.008.984 2.544.56.536 1.288.804 2.184.804.456 0 .848-.052 1.176-.156.336-.112.628-.232.876-.36.256-.136.484-.256.684-.36.208-.112.412-.168.612-.168.256 0 .456.096.6.288l.96 1.2c-.352.408-.74.748-1.164 1.02a6.672 6.672 0 01-1.32.636 7.012 7.012 0 01-1.38.312 9.839 9.839 0 01-1.344.096c-.864 0-1.672-.14-2.424-.42a5.672 5.672 0 01-1.956-1.26c-.552-.56-.988-1.252-1.308-2.076-.32-.824-.48-1.78-.48-2.868 0-.84.136-1.632.408-2.376.28-.744.68-1.392 1.2-1.944a5.617 5.617 0 011.896-1.308c.744-.328 1.584-.492 2.52-.492.792 0 1.52.128 2.184.384a4.718 4.718 0 011.728 1.092c.488.48.864 1.072 1.128 1.776.272.696.408 1.492.408 2.388 0 .248-.012.452-.036.612-.024.16-.064.288-.12.384a.469.469 0 01-.228.204 1.2 1.2 0 01-.372.048h-7.416zM59.178.108V10.26h.551c.208 0 .372-.028.492-.084.12-.064.24-.176.36-.336l2.736-3.648c.136-.184.288-.324.456-.42.176-.096.396-.144.66-.144h3.024l-3.552 4.512c-.28.376-.604.672-.972.888.184.128.344.276.48.444.136.168.268.356.396.564L67.637 18h-2.976c-.256 0-.476-.04-.66-.12a1.044 1.044 0 01-.456-.456l-2.784-4.548c-.112-.192-.228-.316-.348-.372-.12-.056-.3-.084-.54-.084h-.696V18h-3.312V.108h3.312z" fill="#fff"/></svg>