<svg width="81" height="22" fill="none" xmlns="http://www.w3.org/2000/svg"><path d="M6.484 10.304c.681 0 1.27-.084 1.764-.252.495-.177.9-.415 1.218-.714.317-.308.55-.667.7-1.078.15-.41.224-.859.224-1.344 0-.961-.322-1.708-.966-2.24-.635-.532-1.605-.798-2.912-.798H4.328v6.426h2.156zM16.326 21h-3.794c-.71 0-1.223-.27-1.54-.812l-3.864-6.23a1.604 1.604 0 00-.532-.532c-.187-.112-.467-.168-.84-.168H4.328V21h-4.2V.686h6.384c1.419 0 2.632.15 3.64.448 1.008.29 1.834.695 2.478 1.218a4.68 4.68 0 011.414 1.876c.299.719.448 1.512.448 2.38a6.2 6.2 0 01-.294 1.918 5.523 5.523 0 01-.826 1.638 6.005 6.005 0 01-1.344 1.316 6.95 6.95 0 01-1.82.924c.27.15.523.331.756.546.233.205.443.453.63.742L16.326 21zm10.154-6.034c-.943.047-1.727.13-2.352.252-.626.112-1.125.261-1.498.448-.364.187-.626.401-.784.644a1.4 1.4 0 00-.224.77c0 .56.154.957.462 1.19.317.233.756.35 1.316.35.644 0 1.199-.112 1.666-.336.476-.233.947-.593 1.414-1.078v-2.24zm-7.87-6.398a8.535 8.535 0 012.814-1.708c1.027-.383 2.138-.574 3.332-.574.86 0 1.624.14 2.296.42.682.28 1.256.672 1.723 1.176.476.495.84 1.087 1.091 1.778a6.57 6.57 0 01.378 2.268V21H28.48c-.364 0-.644-.051-.84-.154-.186-.103-.34-.317-.461-.644l-.308-.924a13.4 13.4 0 01-1.064.84 6.3 6.3 0 01-1.05.616 5.76 5.76 0 01-1.177.364c-.41.084-.872.126-1.386.126a5.652 5.652 0 01-1.736-.252 3.904 3.904 0 01-1.357-.742 3.405 3.405 0 01-.869-1.246c-.205-.495-.308-1.064-.308-1.708 0-.532.136-1.064.406-1.596.271-.532.733-1.013 1.387-1.442.662-.439 1.54-.798 2.631-1.078 1.102-.29 2.479-.453 4.13-.49v-.742c0-.905-.19-1.568-.573-1.988-.383-.43-.934-.644-1.652-.644-.533 0-.976.065-1.33.196a5.893 5.893 0 00-.939.406c-.26.14-.508.275-.741.406a1.736 1.736 0 01-.813.182c-.27 0-.499-.065-.686-.196a2.031 2.031 0 01-.448-.49l-.686-1.232zm28.981-2.002L41.922 21h-3.5l-5.67-14.434h3.206c.28 0 .514.065.7.196.187.13.317.299.392.504l2.422 7.14c.159.485.299.961.42 1.428.121.457.229.92.322 1.386.103-.467.215-.929.336-1.386.13-.467.28-.943.448-1.428l2.506-7.14a.959.959 0 01.378-.504c.187-.13.406-.196.658-.196h3.052zm11.735 5.516c0-.401-.056-.784-.168-1.148a2.588 2.588 0 00-.504-.966c-.233-.28-.527-.5-.882-.658-.355-.168-.78-.252-1.274-.252-.924 0-1.647.261-2.17.784-.523.523-.863 1.27-1.022 2.24h6.02zm-6.076 2.296c.121 1.353.504 2.343 1.148 2.968.653.625 1.503.938 2.548.938.532 0 .99-.06 1.372-.182a7.22 7.22 0 001.022-.42c.299-.159.565-.299.798-.42a1.5 1.5 0 01.714-.196c.299 0 .532.112.7.336l1.12 1.4a6.22 6.22 0 01-1.358 1.19 7.786 7.786 0 01-1.54.742 8.18 8.18 0 01-1.61.364c-.541.075-1.064.112-1.568.112a8.039 8.039 0 01-2.828-.49 6.617 6.617 0 01-2.282-1.47c-.644-.653-1.153-1.46-1.526-2.422-.373-.961-.56-2.077-.56-3.346 0-.98.159-1.904.476-2.772a6.719 6.719 0 011.4-2.268 6.553 6.553 0 012.212-1.526c.868-.383 1.848-.574 2.94-.574.924 0 1.773.15 2.548.448.784.29 1.456.714 2.016 1.274.57.56 1.008 1.25 1.316 2.072.317.812.476 1.74.476 2.786 0 .29-.014.527-.042.714a1.268 1.268 0 01-.14.448.547.547 0 01-.266.238 1.401 1.401 0 01-.434.056H53.25zM70.447.126V11.97h.644c.242 0 .434-.033.574-.098.14-.075.28-.205.42-.392l3.192-4.256c.158-.215.336-.378.532-.49.205-.112.462-.168.77-.168h3.528l-4.144 5.264a3.833 3.833 0 01-1.134 1.036c.214.15.401.322.56.518.158.196.312.415.462.658L80.317 21h-3.472c-.299 0-.556-.047-.77-.14-.215-.103-.392-.28-.532-.532l-3.248-5.306c-.13-.224-.266-.369-.406-.434s-.35-.098-.63-.098h-.812V21h-3.864V.126h3.864z" fill="#64629D"/></svg>